<svg xmlns="http://www.w3.org/2000/svg" viewBox="0 0 100 100"><g class="nc-icon-wrapper"><defs/><circle class="a" cx="58.458" cy="53.354" r="40" fill="#e8f4fa" stroke="#daedf7" stroke-miterlimit="10"/><path class="b" d="M84.9 6.646h-50a5.857 5.857 0 0 0-5.882 5.832v67.95a40 40 0 0 0 61.765-3.508V12.478A5.858 5.858 0 0 0 84.9 6.646z" fill="#fff" stroke="#45413c" stroke-linecap="round" stroke-linejoin="round"/><path class="c" d="M83.919 20.5H35.878a1.409 1.409 0 0 0-1.413 1.4v63.461a40 40 0 0 0 50.867-2.379V21.9a1.409 1.409 0 0 0-1.413-1.4z" style="" fill="#4acfff"/><path class="d" d="M75.334 20.5H35.878a1.409 1.409 0 0 0-1.413 1.4v39.466z" style="" fill="#80ddff"/><path class="e" d="M83.919 20.5H35.878a1.409 1.409 0 0 0-1.413 1.4v63.461a40 40 0 0 0 50.867-2.379V21.9a1.409 1.409 0 0 0-1.413-1.4z" stroke="#45413c" stroke-linecap="round" stroke-linejoin="round" fill="none"/><path class="f" d="M50.339 12.945a.992.992 0 1 0 1 .992 1 1 0 0 0-1-.992z" style="" fill="#45413c"/><path class="b" d="M55.487 13.937h13.236" fill="#fff" stroke="#45413c" stroke-linecap="round" stroke-linejoin="round"/><path class="g" d="M38.616 88.093a40.035 40.035 0 0 0 42.067-1.477 4.873 4.873 0 0 0-4.311-2.6H43.425a4.876 4.876 0 0 0-4.809 4.077z" stroke="#45413c" stroke-linecap="round" stroke-linejoin="round" fill="#b8ecff"/><rect class="g" x="38.807" y="24.516" width="42.697" height="27.448" rx="2.017" ry="2.017" stroke="#45413c" stroke-linecap="round" stroke-linejoin="round" fill="#b8ecff"/><path class="h" d="M54.056 35.136a4.575 4.575 0 1 1-4.629-4.52 4.575 4.575 0 0 1 4.629 4.52z" stroke="#45413c" stroke-linecap="round" stroke-linejoin="round" fill="#fff48c"/><path class="i" d="M47.958 51.964l5.714-8.2a3.049 3.049 0 0 1 4.3-.718l3.637 2.654 4.652-7.644a3.05 3.05 0 0 1 5.317.19l6.876 13.715z" stroke="#45413c" stroke-linecap="round" stroke-linejoin="round" fill="#9ceb60"/><circle class="j" cx="74.036" cy="66.78" r="8.188" style="" fill="#ff6242"/><circle class="e" cx="74.036" cy="66.78" r="8.188" stroke="#45413c" stroke-linecap="round" stroke-linejoin="round" fill="none"/><path class="k" d="M74.384 72.088a.482.482 0 0 1-.7 0l-4.167-4.347a2.672 2.672 0 0 1-.5-3.084 2.672 2.672 0 0 1 4.279-.694l.737.737.738-.737a2.671 2.671 0 0 1 4.278.694 2.672 2.672 0 0 1-.5 3.084z" style="" fill="#fff"/><path class="e" d="M74.384 72.088a.482.482 0 0 1-.7 0l-4.167-4.347a2.672 2.672 0 0 1-.5-3.084 2.672 2.672 0 0 1 4.279-.694l.737.737.738-.737a2.671 2.671 0 0 1 4.278.694 2.672 2.672 0 0 1-.5 3.084z" stroke="#45413c" stroke-linecap="round" stroke-linejoin="round" fill="none"/><path class="l" d="M98.458 53.354a40 40 0 0 1-80 0" stroke="#daedf7" stroke-miterlimit="10" fill="none"/><g><rect class="b" x="1.542" y="55.278" width="58.357" height="23.005" rx="11.502" ry="11.502" fill="#fff" stroke="#45413c" stroke-linecap="round" stroke-linejoin="round"/><path class="e" d="M14.87 61.524h18.912" stroke="#45413c" stroke-linecap="round" stroke-linejoin="round" fill="none"/><path class="e" d="M10.01 66.491h24.235" stroke="#45413c" stroke-linecap="round" stroke-linejoin="round" fill="none"/><path class="e" d="M10.01 71.303h24.235" stroke="#45413c" stroke-linecap="round" stroke-linejoin="round" fill="none"/><path class="m" d="M56.077 69.118a1.405 1.405 0 0 0-1.14-1.368v-.913a6.841 6.841 0 0 0-13.682 0v.913a1.4 1.4 0 0 0 .143 2.764 6.842 6.842 0 0 0 13.395 0 1.411 1.411 0 0 0 1.284-1.396z" stroke="#45413c" stroke-linecap="round" stroke-linejoin="round" fill="#d18660"/><path class="e" d="M56.077 69.118a1.405 1.405 0 0 0-1.14-1.368v-.913a6.841 6.841 0 0 0-13.682 0v.913a1.4 1.4 0 0 0 .143 2.764 6.842 6.842 0 0 0 13.395 0 1.411 1.411 0 0 0 1.284-1.396z" stroke="#45413c" stroke-linecap="round" stroke-linejoin="round" fill="none"/><path class="f" d="M45.53 66.837a.855.855 0 1 0 .855.855.855.855 0 0 0-.855-.855z" style="" fill="#45413c"/><path class="f" d="M50.661 66.837a.855.855 0 1 0 .855.855.855.855 0 0 0-.855-.855z" style="" fill="#45413c"/><circle class="n" cx="44.39" cy="69.973" r=".855" style="" fill="#bd704a"/><circle class="n" cx="51.801" cy="69.973" r=".855" style="" fill="#bd704a"/><path class="e" d="M46.385 72.02a3.086 3.086 0 0 0 3.421 0" stroke="#45413c" stroke-linecap="round" stroke-linejoin="round" fill="none"/><path class="o" d="M56.077 62.847a4.561 4.561 0 0 0-4.561-4.561h-5.131a1.141 1.141 0 0 1-1.14-1.14h-1.71a3.42 3.42 0 0 0-.374 6.82 3.127 3.127 0 0 0 2.654 2.3h1.527a.114.114 0 0 0 .045-.219 2.462 2.462 0 0 1-1.487-2.06h5.621l3.249 3.253a.568.568 0 0 0 .4.167h.334a.57.57 0 0 0 .57-.57z" style="" fill="#724f3d"/><path class="p" d="M43.161 63.966a3.415 3.415 0 0 1-2.861-2.331 4.5 4.5 0 0 0-.183 1.212v3.99a.57.57 0 0 0 .57.57h.334a.57.57 0 0 0 .4-.167l2.261-2.261a4.071 4.071 0 0 1-.521-1.013z" stroke="#45413c" stroke-linecap="round" stroke-linejoin="round" fill="#724f3d"/><path class="q" d="M46.956 60.756a28.652 28.652 0 0 1 9.063 1.368 4.561 4.561 0 0 0-4.5-3.838h-5.134a1.141 1.141 0 0 1-1.14-1.14h-1.71a3.421 3.421 0 0 0-3.3 4.323 30.826 30.826 0 0 1 6.721-.713z" style="" fill="#a86c4d"/><path class="e" d="M56.077 62.847a4.561 4.561 0 0 0-4.561-4.561h-5.131a1.141 1.141 0 0 1-1.14-1.14h-1.71a3.42 3.42 0 0 0-.374 6.82 3.127 3.127 0 0 0 2.654 2.3h1.527a.114.114 0 0 0 .045-.219 2.462 2.462 0 0 1-1.487-2.06h5.621l3.249 3.253a.568.568 0 0 0 .4.167h.334a.57.57 0 0 0 .57-.57z" stroke="#45413c" stroke-linecap="round" stroke-linejoin="round" fill="none"/></g></g></svg>