<svg xmlns="http://www.w3.org/2000/svg" viewBox="0 0 100 100"><g class="nc-icon-wrapper"><defs/><circle class="a" cx="43.326" cy="51.628" r="40" fill="#e8f4fa" stroke="#daedf7" stroke-miterlimit="10"/><rect class="b" x="7.64" y="16.224" width="64.777" height="49.073" rx="3.6" ry="3.6" style="" fill="#00b8f0"/><path class="c" d="M11.609 16.224a3.969 3.969 0 0 0-3.969 3.969v41.135a3.969 3.969 0 0 0 3.969 3.972h.528l49.074-49.076z" style="" fill="#4acfff"/><path class="d" d="M72.417 61.328v-3.883H7.64v3.883a3.969 3.969 0 0 0 3.969 3.972h56.839a3.969 3.969 0 0 0 3.969-3.972z" fill="#fff" stroke="#45413c" stroke-linecap="round" stroke-linejoin="round"/><path class="e" d="M66.528 16.224H56.243a16.661 16.661 0 0 0 15.192 23.555c.332 0 .655-.031.982-.05V22.112a5.888 5.888 0 0 0-5.889-5.888z" style="" fill="#009fd9"/><rect class="f" x="7.64" y="16.224" width="64.777" height="49.073" rx="3.6" ry="3.6" stroke="#45413c" stroke-linecap="round" stroke-linejoin="round" fill="none"/><path class="g" d="M45.917 73.149H34.139l.982-7.852h9.815l.981 7.852z" style="" fill="#e0e0e0"/><path class="h" d="M45.304 68.241H34.753l.368-2.944h9.815l.368 2.944z" style="" fill="#87898c"/><path class="f" d="M45.917 73.149H34.139l.982-7.852h9.815l.981 7.852z" stroke="#45413c" stroke-linecap="round" stroke-linejoin="round" fill="none"/><path class="d" d="M51.806 77.075H28.251a3.925 3.925 0 0 1 3.926-3.926h15.7a3.926 3.926 0 0 1 3.929 3.926z" fill="#fff" stroke="#45413c" stroke-linecap="round" stroke-linejoin="round"/><path class="i" d="M95.766 42.058a3.1 3.1 0 0 1-4.385 4.385l-7.065-7.065a1.635 1.635 0 0 1 0-2.313l2.071-2.072a1.637 1.637 0 0 1 2.314 0z" stroke="#45413c" stroke-linecap="round" stroke-linejoin="round" fill="#dea47a"/><path class="j" d="M78.773 31.643l2.193-2.192 5.481 5.481-2.192 2.193z" stroke="#45413c" stroke-linecap="round" stroke-linejoin="round" fill="#f0f0f0"/><path class="d" d="M81.515 12.459a13.954 13.954 0 1 1-19.734 0 13.954 13.954 0 0 1 19.734 0z" fill="#fff" stroke="#45413c" stroke-linecap="round" stroke-linejoin="round"/><path class="b" d="M78.774 15.2a10.078 10.078 0 1 1-14.252 0 10.079 10.079 0 0 1 14.252 0z" style="" fill="#00b8f0"/><path class="c" d="M78.774 15.2a10.078 10.078 0 1 0-14.252 14.251c.048.048.1.088.15.135l14.237-14.237c-.047-.049-.087-.102-.135-.149z" style="" fill="#4acfff"/><path class="f" d="M78.774 15.2a10.078 10.078 0 1 1-14.252 0 10.079 10.079 0 0 1 14.252 0z" stroke="#45413c" stroke-linecap="round" stroke-linejoin="round" fill="none"/><path class="f" d="M49.843 42.723h11.778" stroke="#45413c" stroke-linecap="round" stroke-linejoin="round" fill="none"/><path class="f" d="M49.843 46.649h11.778" stroke="#45413c" stroke-linecap="round" stroke-linejoin="round" fill="none"/><path class="f" d="M49.843 50.575h11.778" stroke="#45413c" stroke-linecap="round" stroke-linejoin="round" fill="none"/><path class="k" d="M35.121 20.149V33.89h13.741a13.741 13.741 0 0 0-13.741-13.741z" stroke="#45413c" stroke-linecap="round" stroke-linejoin="round" fill="#6dd627"/><path class="f" d="M42.976 28.983l4.907-4.908h4.904" stroke="#45413c" stroke-linecap="round" stroke-linejoin="round" fill="none"/><path class="l" d="M31.2 24.075a13.741 13.741 0 0 0-9.716 23.457l9.716-9.716z" stroke="#45413c" stroke-linecap="round" stroke-linejoin="round" fill="#ff6242"/><path class="m" d="M44.936 37.816H31.2l-9.716 9.716a13.741 13.741 0 0 0 23.457-9.716z" stroke="#45413c" stroke-linecap="round" stroke-linejoin="round" fill="#ffe500"/><path class="f" d="M32.177 47.631l4.907 5.888h6.87" stroke="#45413c" stroke-linecap="round" stroke-linejoin="round" fill="none"/><path class="f" d="M23.343 36.834l-3.926-6.87h-7.851" stroke="#45413c" stroke-linecap="round" stroke-linejoin="round" fill="none"/><ellipse class="n" cx="40.659" cy="78.413" rx="18" ry="2.167" fill="#45413c" opacity="0.15"/><circle class="o" cx="40.028" cy="61.371" r="1.25" style="" fill="#45413c"/></g></svg>